<?xml version="1.0" encoding="UTF-8"?>
<svg width="45px" height="45px" viewBox="0 0 45 45" version="1.1" xmlns="http://www.w3.org/2000/svg" xmlns:xlink="http://www.w3.org/1999/xlink">
    <title>615B3D77-828B-4610-BE67-83B3006B1420</title>
    <defs>
        <rect id="path-1" x="0" y="0" width="45" height="45"></rect>
    </defs>
    <g id="Page-1" stroke="none" stroke-width="1" fill="none" fill-rule="evenodd">
        <g id="Desktop-1920" transform="translate(-751.000000, -1241.000000)">
            <g id="3Col-icon-groups" transform="translate(0.000000, 849.000000)">
                <g id="Performance" transform="translate(211.000000, 392.000000)">
                    <g id="ico-optimization" transform="translate(540.000000, 0.000000)">
                        <mask id="mask-2" fill="white">
                            <use xlink:href="#path-1"></use>
                        </mask>
                        <g id="Rectangle-Copy-95"></g>
                        <path d="M6.96203183,35.4910709 C3.19201912,31.7991123 1,27.0274054 1,21.3346602 C0.999517147,10.6330103 9.29425776,1.76268247 19.9719006,1.04626479 C30.6495435,0.32984711 40.0549138,8.0125839 41.4840564,18.6183777 M21.3317904,18.6469972 C22.4196112,18.6464714 23.4005863,19.3014234 23.8171204,20.3063382 C24.2336545,21.311253 24.0036809,22.4681395 23.2344753,23.2373451 C22.4652698,24.0065507 21.3083832,24.2365243 20.3034684,23.8199902 C19.2985536,23.4034561 18.6436016,22.422481 18.6441275,21.3346602 C18.6441275,19.8503051 19.8474353,18.6469972 21.3317904,18.6469972 L21.3317904,18.6469972 Z M33.3924487,14.3709341 L23.9479034,19.8100035 M18.7690143,22.9321673 L15.5700974,24.8601034 M35.1044352,7.5581127 L32.1969202,10.4708313 M21.3317904,1.85756209 L21.3317904,5.9697119 M7.55914564,7.56201541 L10.4679615,10.4708313 M1.85469232,21.3346602 L5.96684214,21.3346602 M6.96203183,35.48977 L10.474466,32.19979" id="Shape" stroke="#03243B" stroke-width="2" stroke-linecap="round" stroke-linejoin="round" mask="url(#mask-2)"></path>
                        <polyline id="Path" stroke="#66A8F7" stroke-width="2" stroke-linecap="round" stroke-linejoin="round" mask="url(#mask-2)" points="15.8471894 43.5280407 23.0906093 36.6475724 28.7092031 42.2739716 40.246899 30.4487765 44 34.221391 44 24.0015084 33.7827192 24.0015084 37.4538634 27.6791571 28.7755491 36.5461021 23.1530526 30.9236055 7.45507352 43.5280407"></polyline>
                    </g>
                </g>
            </g>
        </g>
    </g>
</svg>