<?xml version="1.0" encoding="UTF-8"?>
<svg width="45px" height="45px" viewBox="0 0 45 45" version="1.1" xmlns="http://www.w3.org/2000/svg" xmlns:xlink="http://www.w3.org/1999/xlink">
    <title>854F2760-844A-4CDA-AAA8-D8814C158DDF</title>
    <defs>
        <rect id="path-1" x="0" y="0" width="45" height="45"></rect>
    </defs>
    <g id="Page-1" stroke="none" stroke-width="1" fill="none" fill-rule="evenodd">
        <g id="Desktop-1920" transform="translate(-211.000000, -1241.000000)">
            <g id="3Col-icon-groups" transform="translate(0.000000, 849.000000)">
                <g id="ico-plugins-2" transform="translate(211.000000, 392.000000)">
                    <mask id="mask-2" fill="white">
                        <use xlink:href="#path-1"></use>
                    </mask>
                    <g id="Rectangle"></g>
                    <path d="M3.24454819,1 L22.4792771,1 L22.4792771,8.03024096 C22.7188855,8.8073494 23.4985843,9.36168675 24.4220482,9.33966867 C26.1964458,9.29433735 26.2689759,6.98762048 29.4343976,6.98762048 C32.0588647,6.98762048 34.1864157,9.11517144 34.1864157,11.7396386 C34.1864157,14.3641057 32.0588647,16.4916566 29.4343976,16.4916566 C26.5474398,16.4916566 26.2573193,14.3766265 24.4220482,14.4193675 C23.7485542,14.4362048 22.8833735,15.003494 22.4792771,15.5163855 L22.4792771,22.4766867 L14.9762952,22.4766867 C14.6719277,22.0596386 14.4336145,21.546747 14.4219578,21.1128614 C14.3766265,19.2788855 16.494247,18.9874699 16.494247,16.1018072 C16.494247,13.4773401 14.366696,11.3497892 11.7422289,11.3497892 C9.1177618,11.3497892 6.99021084,13.4773401 6.99021084,16.1018072 C6.99021084,19.2672289 9.29692771,19.339759 9.34225904,21.1128614 C9.35932913,21.6077318 9.19695445,22.092096 8.88506024,22.4766867 L1,22.4766867 L1,3.24454819 C1.00355691,2.00639477 2.00639477,1.00355691 3.24454819,1 Z M22.4792771,43.9598494 L3.24454819,43.9598494 C2.00639477,43.9562925 1.00355691,42.9534546 1,41.7153012 L1,22.4792771 M22.4792771,1 L41.7153012,1 C42.9534546,1.00355691 43.9562925,2.00639477 43.9598494,3.24454819 L43.9598494,22.4792771" id="Shape" stroke="#03243B" stroke-width="2" stroke-linecap="round" stroke-linejoin="round" mask="url(#mask-2)"></path>
                    <path d="M41.7153012,43.9598494 L22.4792771,43.9598494 L22.4792771,36.9296084 C22.2396687,36.1525 21.4612651,35.5968675 20.536506,35.6201807 C18.7634036,35.665512 18.6908735,37.9709337 15.5254518,37.9709337 C12.9009847,37.9709337 10.7734337,35.8433828 10.7734337,33.2189157 C10.7734337,30.5944486 12.9009847,28.4668976 15.5254518,28.4668976 C18.4111145,28.4668976 18.7025301,30.5832229 20.536506,30.5391867 C21.2112952,30.5223494 22.0764759,29.9550602 22.4792771,29.4408735 L22.4792771,22.4792771 L29.9835542,22.4792771 C30.2879217,22.8976205 30.5262349,23.410512 30.5378916,23.8431024 C30.5832229,25.6783735 28.4656024,25.968494 28.4656024,28.8554518 C28.4656024,31.4799189 30.5931534,33.6074699 33.2176205,33.6074699 C35.8420876,33.6074699 37.9696386,31.4799189 37.9696386,28.8554518 C37.9696386,25.6900301 35.6642169,25.6175 35.6188855,23.8431024 C35.6020501,23.3482662 35.764398,22.8639821 36.0760843,22.4792771 L43.9585542,22.4792771 L43.9585542,41.7153012 C43.9549973,42.9534546 42.9521594,43.9562925 41.714006,43.9598494 L41.7153012,43.9598494 Z" id="Path" stroke="#66A8F7" stroke-width="2" stroke-linecap="round" stroke-linejoin="round" mask="url(#mask-2)"></path>
                </g>
            </g>
        </g>
    </g>
</svg>