<?xml version="1.0" encoding="UTF-8"?>
<svg width="45px" height="45px" viewBox="0 0 45 45" version="1.1" xmlns="http://www.w3.org/2000/svg" xmlns:xlink="http://www.w3.org/1999/xlink">
    <title>8DCE0B47-9574-41F0-B38E-2C90F84A5719</title>
    <defs>
        <rect id="path-1" x="0" y="0" width="45" height="45"></rect>
    </defs>
    <g id="Page-1" stroke="none" stroke-width="1" fill="none" fill-rule="evenodd">
        <g id="Desktop-1920" transform="translate(-1290.000000, -1241.000000)">
            <g id="3Col-icon-groups" transform="translate(0.000000, 849.000000)">
                <g id="Performance" transform="translate(211.000000, 392.000000)">
                    <g id="ico-coding" transform="translate(1079.000000, 0.000000)">
                        <mask id="mask-2" fill="white">
                            <use xlink:href="#path-1"></use>
                        </mask>
                        <g id="Rectangle"></g>
                        <g id="Group-14" mask="url(#mask-2)" stroke-linecap="round" stroke-linejoin="round" stroke-width="2">
                            <g transform="translate(1.000000, 3.000000)" id="Shape">
                                <path d="M42.8465273,-6.75015599e-14 L-1.0658141e-14,-6.75015599e-14 L-1.0658141e-14,37.7542765 L42.8465273,37.7542765 L42.8465273,-6.75015599e-14 Z M42.8465273,8.92906752 L0.00138263666,8.92906752" stroke="#03243B"></path>
                                <path d="M37.4473312,3.67090032 C36.9128048,3.67090032 36.4794855,4.10421958 36.4794855,4.63874598 C36.4794855,5.17327238 36.9128048,5.60659164 37.4473312,5.60659164 C37.9818576,5.60659164 38.4151768,5.17327238 38.4151768,4.63874598 C38.4151768,4.10421958 37.9818576,3.67090032 37.4473312,3.67090032 Z M32.4809003,3.67090032 C31.9463739,3.67090032 31.5130547,4.10421958 31.5130547,4.63874598 C31.5130547,5.17327238 31.9463739,5.60659164 32.4809003,5.60659164 C33.0154267,5.60659164 33.448746,5.17327238 33.448746,4.63874598 C33.448746,4.10421958 33.0154267,3.67090032 32.4809003,3.67090032 Z" stroke="#03243B"></path>
                                <path d="M14.8757878,17.6286174 L7.74414791,23.4356913 L14.8757878,29.2427653 M27.9707395,17.6286174 L35.1037621,23.4356913 L27.9707395,29.2427653 M23.6721222,14.7803859 L19.9790997,32.0951447" stroke="#66A8F7"></path>
                            </g>
                        </g>
                    </g>
                </g>
            </g>
        </g>
    </g>
</svg>